<svg xmlns="http://www.w3.org/2000/svg" viewBox="0 0 454.05 188.36">
    <path d="M417,19.56A52.76,52.76,0,0,1,432.39,4c3.37-2.24,5.51-2.23,7.3,1.86,2.86,6.54,5.11,13.06,3.06,20.28a7.57,7.57,0,0,0,1.43,7c1.89,2.53,3.57,5.22,5.32,7.86,4.28,6.45,6,13.25,3.13,20.83a18.24,18.24,0,0,0-.69,10.31,28.24,28.24,0,0,1,0,10c-.87,5.43-3.68,9.23-9.16,10.67a19.55,19.55,0,0,0-10.86,6.67,4.47,4.47,0,0,1-2.9,1.81c-4,.54-14.15-8.48-14.14-12.56,0-.66,0-1.33.05-2,.23-12-.5-13.21-11.55-18a15.07,15.07,0,0,1-6.13-4.17c-2.2-2.76-4.86-2.5-7.65-1.33s-4.7,3-4.32,6.48a216.6,216.6,0,0,1,1.18,24.43,5.23,5.23,0,0,0,.79,2.83c10.49,15.11,14.44,32.89,19.67,50,4,13,11.51,20.15,25,21.1a61.13,61.13,0,0,1,6.41,1.05c6,1.13,9.66,4.94,11.44,10.62,2.22,7.07,1.12,8.58-6.25,8.63s-14.66,0-22,.06c-3,0-5.49-.54-7.72-2.73-3.26-3.22-7.53-4.86-11.64-6.68-4.5-2-8.69-4.51-11.37-8.68-3.75-5.83-8.85-10.35-13.63-15.21-9.58-9.75-19.49-19.15-28.54-29.41-6.52-7.38-10.79-15.58-10.71-25.61,0-3.16-.79-4.47-4-2.89a8.34,8.34,0,0,1-3.34,1c-9.53.15-14.2,5.84-17.57,14.06-3,7.2-7.2,13.89-10.77,20.85a32.13,32.13,0,0,0-3.91,14.84c0,7.91,1.87,10.75,9.33,13.42,4.62,1.65,9.07,3.38,11.6,8,2.86,5.24,2,6.86-3.85,6.92-7.66.07-15.33,0-23,.06a6.46,6.46,0,0,1-6.45-3.7c-1.89-3.52-4.15-6.83-6.25-10.23-3.48-5.65-4.89-11.42-2.53-18.07,2-5.77,1.12-12,.27-17.84-1.27-8.76.11-16.58,5.84-23.43,1.87-2.23,2.11-3.46-1.33-4.11-14-2.63-27.25-7.57-40.06-13.72l-.46-.2c-10.82-4.15-12.9-3.22-15.94,7.67-2.64,9.46-5.39,18.92-7.44,28.51-2.28,10.6.38,20.84,3.79,30.86,1.32,3.88,5.28,3.72,8.32,4.61,6.64,1.95,12.37,4.76,15.27,11.64,2.26,5.35,2,6.07-3.69,6.12-5.83.05-11.68-.29-17.49.1-5.52.37-9.64-1.74-14.15-4.75-16.29-10.89-20.92-27.14-22.22-45.22-.82-11.23-6.74-20-13.92-28.13-1.4-1.58-2.67-2.23-4.7-.94-7.09,4.5-15.08,7-22.87,9.94-16.37,6.2-30.57,15.45-41.31,29.53a37.18,37.18,0,0,0-7.56,17.21c-.9,6,.8,8.6,6.64,10.32,6.47,1.91,9,5,9.77,11.57.31,2.76-.69,4.18-3.47,4.19q-13.74,0-27.49-.06c-2,0-3.33-1.21-4.54-2.7A29.79,29.79,0,0,1,71.83,157,171.1,171.1,0,0,1,75,122.27c1.27-7.1,4.61-12.91,11.35-16.09,20-9.44,30.48-27.13,39.92-45.78,1.9-3.76.22-4.33-3-4-9.8.88-18.19,5.22-26,10.73C87.06,74.19,78,82.53,69,91c-9.87,9.22-21.08,15.63-34.92,16.6C10.66,109.19-1.09,95.69.08,73.24A32.24,32.24,0,0,1,8.3,52.74c4-4.45,9-6.89,15.2-5.08,5.17,1.49,6.5,4.1,4.37,8.94-.87,2-2.21,3.72-3.25,5.61a49,49,0,0,0-3.37,6.66C17.69,78.9,22.49,86,33.09,86.94c11.25,1,20.39-3.73,28.87-10.38A162.45,162.45,0,0,0,89.24,48.8c12.63-16.06,29-24.63,48.81-27.21,7.69-1,14.62-4.44,22-6.51,14.05-3.94,28.28-6.3,42.88-5.94a47.82,47.82,0,0,0,19.82-3.61c16.51-6.72,33.78-6.7,51.1-3.21,13.55,2.72,26.94,6.12,40.39,9.3,7.6,1.8,15.94,1.15,23.7-.54,15-3.26,30-6.3,45.38-6.59a66.34,66.34,0,0,1,29.18,5.71C419,13.17,419,13.16,417,19.56Z"/>
</svg>
