<svg xmlns="http://www.w3.org/2000/svg" viewBox="0 0 367.6 512">
    <path d="M288,0h-2c-3.58,1.86-5.72,5-7.55,8.42a83.19,83.19,0,0,0-6.92,18.18c-1.11,4.27-3.43,6.31-7.77,7.07-12.28,2.12-21.23,9.12-27.47,19.75a140.06,140.06,0,0,0-9.69,20.82c-7.49,19.44-13.22,39.49-20.21,59.1-3.34,9.36-3.48,9.24-13.49,9.34-11.89.11-11.06-1.86-11.24,11.33-.06,4.18,1.26,6.29,5.67,6.07,1.37-.06,3.43-.69,3.94,1.14.43,1.52-1.26,2.58-2.26,3.64-6.27,6.64-14.11,10.5-22.79,12.85-10,2.69-20.12,4.79-29.88,8.09-24.9,8.4-48,20.13-65.93,40-11,12.12-18.48,26.49-24.88,41.39C26,312.57,16.91,360.63,9.64,409.14,6.23,431.87,3.83,454.72,2,477.61,1.05,489.05-.15,500.49,0,512H175c.61-2.44-.39-4.61-1.22-6.76-3.56-9.26-10.87-14.08-20.09-16.22-3.65-.84-4.12-1.94-1.85-4.83a54,54,0,0,0,8.35-16.39c8.58-25.37,11.89-51.84,16-78.11,3.15-20.06,7.87-39.46,18.26-57.16a114.66,114.66,0,0,1,29.38-33.63c4.36-3.33,4.5-3.33,5.25,2.33.5,3.78.63,7.61.86,11.43a490.23,490.23,0,0,1-.91,74.8c-1.78,19.42-2.49,38.81-.8,58.29A397.67,397.67,0,0,0,240,512h70a28.57,28.57,0,0,0-22.27-23.44c-6.74-1.32-13.28-.43-19.79,1.07-3.14.72-4.45.15-4.72-3.43a300.19,300.19,0,0,1,5.05-83.5c6.59-31.8,12.8-63.67,16.1-96a94,94,0,0,1,11.94-37.09c6.27-11.19,11.73-22.82,17.88-34.08,4.88-8.91,5.81-17.92,2.18-27.39-1.43-3.73-2.78-7.51-4.52-11.1-5-10.33-10.35-20.52-15.31-30.89-2.56-5.36-2-5.93,3.73-6,8.56-.19,8.57-.19,8.7-8.68,0-1.16,0-2.33,0-3.49.07-3.64-1.35-5.65-5.33-5.35-2.66.2-5.34,0-8,.05-3.63.07-4.68-1.52-3.79-5,3-12,14.6-21.9,27-23.41,11.76-1.44,23.25.23,34.72,2.27,3.41.61,5.29-.14,6.57-3.37,2.1-5.26,4.45-10.42,6.77-15.59,1-2.15,1.05-4.05-.49-6-16.68-21.67-34.87-41.7-59.71-54.4A8,8,0,0,1,302,31.13c-1.58-7.5-3.42-14.94-6.66-21.95C293.68,5.5,291.72,2.06,288,0Z"/>
</svg>
