<svg xmlns="http://www.w3.org/2000/svg" viewBox="0 0 69.86 57.07"><title>cat-energy-logo-tablet</title><path d="M59.62,21.74A25.5,25.5,0,1,0,32.37,56.79c-.58-2.08-1.16-4.38-1.69-6.82a33.67,33.67,0,0,0,4.75,2.54h0s.12,2.15.28,4.55A25.26,25.26,0,0,0,41,56.59a2.14,2.14,0,0,1,0-.76c.29-1.85,1.09-5.21,1.25-7.37a15.34,15.34,0,0,0,2.88-3.7v0c0,.14,0,.28,0,.43-.56,4.24-1.7,8.77-2.4,10a5.76,5.76,0,0,1-.82,1.14,24.79,24.79,0,0,0,4-1.31A25.49,25.49,0,0,0,59.62,21.74Zm-1.47,3.77c-.43.43-1.34.72-1.48-.58s-.2-2.2-.2-2.2-1.92-3.41-2.64-3.46-5.8,3.46-7.14,4.94c-1.16,1.29-1.4,1.2-1.4,3.46,0,1.7.22,8.13.1,13h0l-8.11,2.16a64.34,64.34,0,0,1-7.77,1.77l-1-5.8h-.13L25.81,25.7S22,24.26,20.63,23.88a3.7,3.7,0,0,0-4,.62,5.09,5.09,0,0,0-1.73,3.84,6.41,6.41,0,0,1,.48,1.44c.05.48-1.2.43-2,.43s-.91-1.44-.29-3.12A23,23,0,0,1,15,23.4,11.85,11.85,0,0,1,17,20.52s.15-.34,1.25-.24,7.25.43,7.25.43l0-2.26a144.54,144.54,0,0,1,20.16-1.34c0,.61,0,1.22-.06,1.82a22.52,22.52,0,0,1,8.11-2,.89.89,0,0,1,.76.38c.34.43,2.4,3,2.64,3.36a28.83,28.83,0,0,1,1.83,3A6.35,6.35,0,0,1,58.15,25.51Z" fill="#fdc305"/><path d="M56.21,19.43c.47.59.88,1.12,1,1.28a28.83,28.83,0,0,1,1.83,3,6.35,6.35,0,0,1-.87,1.78c-.43.43-1.34.72-1.48-.58s-.2-2.2-.2-2.2-1.92-3.41-2.64-3.46-5.8,3.46-7.14,4.94c-1.16,1.29-1.4,1.2-1.4,3.46,0,1.49.17,6.62.13,11.17,1.8.21,4.45.71,5.25,1.88,0,0-.29-7.15,7.77-3.41,0,0,.29-9.74,11.42-7.24A43.52,43.52,0,0,0,56.21,19.43Z" fill="#f06351"/><path d="M45.74,17.11A90.27,90.27,0,0,0,44.33.65s-.14-1.29-.86-.24a14.22,14.22,0,0,0-1.2,3.94,70.84,70.84,0,0,0-12.76.33C28.69,2,27.3.75,26.63,1s-.72,3.31-.72,3.31l-.33,14.1A144.54,144.54,0,0,1,45.74,17.11Z" fill="#f06351"/><path d="M45.15,44.76c.13-1.06.2-2.47.24-4l-8.11,2.16a64.34,64.34,0,0,1-7.77,1.77l1.1,5c0,.11.05.22.07.33a33.67,33.67,0,0,0,4.75,2.54,42,42,0,0,0,6.84-4.12v.07A15.34,15.34,0,0,0,45.15,44.76Z" fill="#e55645"/><path d="M31.86,14c-.05-.09,1,.68,1.4.92s.61.43.61.59-.26.34-.62.34-.91-.12-1-.26.6,0,.94,0h.28A8.09,8.09,0,0,1,31.86,14Z"/><path d="M39.33,14.11s-1,1.27-1.09,1.33-.16.34.19.29a8.09,8.09,0,0,0,1.22-.28c.1-.06.07-.2-.12-.18s-.68.05-1,.11l.84-1.26S39.41,14,39.33,14.11Z"/><path d="M36.2,20.19a2.31,2.31,0,0,0,1.09-1c.28-.66,0-.92-.44-1a2.43,2.43,0,0,0-1.74.34c-.4.37-.34.73,0,.95A4.57,4.57,0,0,0,36.2,20.19Z"/><path d="M35.79,21.44a2,2,0,0,1-.45.6,1.83,1.83,0,0,1-1,.39A2.13,2.13,0,0,1,32.87,22a2,2,0,0,1-.54-.44.89.89,0,0,0-.35-.25s.75,4.09,2.56,4.74,2.15-.75,2.2-1.13a5.56,5.56,0,0,0-.82-3.22C35.91,21.37,35.89,21.58,35.79,21.44Z" fill="#f06351"/><path d="M34.15,22.58h0a3.44,3.44,0,0,1-2.33-1.42.14.14,0,0,1,0-.2.14.14,0,0,1,.2,0,3.23,3.23,0,0,0,2.1,1.3h0a2.08,2.08,0,0,0,1.63-1l.14-.19.1.21s.38.76,1,.8,1.05-.41,1.62-1.28a.14.14,0,0,1,.2,0,.15.15,0,0,1,0,.2c-.63,1-1.26,1.44-1.88,1.41a1.54,1.54,0,0,1-1.11-.77A2.26,2.26,0,0,1,34.15,22.58Z"/><path d="M41.05,29.22l-3.12,1.3,1.15-5.61-7.47,9.72,3.12-1.31-1.14,5.62ZM33.7,33l4.11-5.38-.8,4,2-.82-4.12,5.39.81-4Z" fill="#111"/><path d="M45.68,18.92a56.19,56.19,0,0,0-5.06,5.19A31.82,31.82,0,0,1,35.33,29c-.22-.53-1.62-1.51-1.62-1.51s-3.13-2.14-5.19-3.82a35.24,35.24,0,0,1-3.12-3l-2-.11a22.56,22.56,0,0,0,12,8.8c.87-.14,3.28-1.86,5.08-3.26a56,56,0,0,0,5.93-5.89,6,6,0,0,0,1.14-2C46.4,18.59,45.68,18.92,45.68,18.92Z" fill="#f06351"/><path d="M25.81,25.7S22,24.26,20.63,23.88a3.7,3.7,0,0,0-4,.62,5.09,5.09,0,0,0-1.73,3.84,6.41,6.41,0,0,1,.48,1.44c.05.48-1.2.43-2,.43s-.91-1.44-.29-3.12A23,23,0,0,1,15,23.4C9.55,26.23,0,32.75,0,32.75A46.72,46.72,0,0,1,8.16,33c5.23.53,4.94,4.66,4.94,4.66a38.45,38.45,0,0,1,5.61-1.11C20.82,36.4,21,38.65,21,38.65l.53,3.84a19.16,19.16,0,0,1,2.63-2.35,6.06,6.06,0,0,1,4.37-1.29h0Z" fill="#f06351"/></svg>