<svg xmlns="http://www.w3.org/2000/svg" viewBox="0 0 22 12"><title>vk</title><path d="M17.55,12A2.86,2.86,0,0,1,16,11.52a7.15,7.15,0,0,1-1.31-1.17c-.32-.33-.86-.89-1.06-.89s-.35.7-.35,1.19a1.32,1.32,0,0,1-.34.92,1.59,1.59,0,0,1-.89.38H10.66a8.16,8.16,0,0,1-5.44-2.3C2.52,7.1.21,2.2.11,2A1.06,1.06,0,0,1,.22.86a1.45,1.45,0,0,1,1-.36l3,0h.08A1.92,1.92,0,0,1,5,.75a1.34,1.34,0,0,1,.45.56,18,18,0,0,0,1.09,2c1,1.52,1.39,1.87,1.54,1.95a6.54,6.54,0,0,0,.14-2.18,2.14,2.14,0,0,0-.19-1,1,1,0,0,0-.57-.22l-.53-.53c-.07-.5.47-.93.84-1.1A6.09,6.09,0,0,1,10.08,0h.52a6.68,6.68,0,0,1,1.58.15c1.25.27,1.2,1.32,1.15,2.52,0,.35,0,.76,0,1.24,0,.11,0,.23,0,.36a3.42,3.42,0,0,0,.07,1,6.77,6.77,0,0,0,1.52-1.89A13.91,13.91,0,0,0,16,1.24h0A1.14,1.14,0,0,1,17.17.52L20.3.5h.28c.72,0,1.17.22,1.34.65s.13,1.26-1.72,3.5l-.72.86a5.33,5.33,0,0,0-.91,1.22,5.32,5.32,0,0,0,.92.87,10.67,10.67,0,0,1,2.22,2.34,1.25,1.25,0,0,1,.19,1.28,1.68,1.68,0,0,1-1.38.75l-2.78,0ZM13.66,8.31c.66,0,1.23.6,1.84,1.24a6.5,6.5,0,0,0,1.1,1,1.81,1.81,0,0,0,1,.32h.08l2.79,0a1.18,1.18,0,0,0,.39-.1.57.57,0,0,0-.07-.13,10.13,10.13,0,0,0-2-2.07C18,7.78,17.52,7.4,17.47,6.8s.36-1.09,1.18-2l.71-.85a8.13,8.13,0,0,0,1.51-2.25,2.92,2.92,0,0,0-.5,0l-3.2,0c-.14,0-.18,0-.18,0A16.33,16.33,0,0,1,15.79,4c-1.39,2.14-2,2.43-2.5,2.44a.79.79,0,0,1-.42-.12c-.73-.43-.71-1.39-.68-2.1V3.9c0-.49,0-.91,0-1.28,0-1.28,0-1.29-.28-1.35a4.88,4.88,0,0,0-1.36-.12h-.51a9.09,9.09,0,0,0-1.4.08.86.86,0,0,1,.19.19,2.82,2.82,0,0,1,.44,1.67c.1,1.25,0,2.89-.74,3.28a1,1,0,0,1-.44.11c-.68,0-1.36-.68-2.51-2.49a16.6,16.6,0,0,1-1.16-2.2.2.2,0,0,0-.06-.07.73.73,0,0,0-.23-.09l-2.94,0H1.18c.43.91,2.51,5,4.78,7.17a7.13,7.13,0,0,0,4.71,2H12a.53.53,0,0,0,.2-.07s0,0,0-.08c0-.2,0-2,1.16-2.31A1.35,1.35,0,0,1,13.66,8.31Z" transform="translate(0)"/></svg>