<svg xmlns="http://www.w3.org/2000/svg" viewBox="0 0 201.99 59.48"><title>cat-energy-brand-desktop</title><path d="M59.88,24A25.61,25.61,0,1,0,32.51,59.2c-.58-2.09-1.17-4.4-1.69-6.85a32.32,32.32,0,0,0,4.76,2.55h0s.12,2.16.28,4.57A25.48,25.48,0,0,0,41.19,59a2.14,2.14,0,0,1,0-.76c.29-1.87,1.09-5.24,1.25-7.41a15.22,15.22,0,0,0,2.9-3.71v0l-.06.44c-.55,4.26-1.7,8.81-2.4,10.07a5.58,5.58,0,0,1-.83,1.15A25.64,25.64,0,0,0,59.88,24Zm-1.47,3.79c-.44.43-1.35.72-1.5-.58S56.72,25,56.72,25s-1.93-3.43-2.65-3.47-5.83,3.47-7.18,5c-1.17,1.29-1.4,1.2-1.4,3.47,0,1.71.22,8.17.1,13.11h0l-8.15,2.17A64,64,0,0,1,29.64,47l-1-5.83H28.5L25.93,28s-3.81-1.44-5.21-1.83a3.76,3.76,0,0,0-4,.63,5.07,5.07,0,0,0-1.73,3.85,7.14,7.14,0,0,1,.48,1.45c.05.48-1.2.43-2,.43s-.92-1.44-.29-3.13A22.81,22.81,0,0,1,15,25.66a11.87,11.87,0,0,1,2.07-2.89s.14-.34,1.25-.24,7.28.43,7.28.43l.05-2.27a142.77,142.77,0,0,1,20.24-1.34c0,.61,0,1.22,0,1.83a22.52,22.52,0,0,1,8.14-2,.91.91,0,0,1,.77.39c.34.43,2.41,3,2.65,3.37a28,28,0,0,1,1.83,3A6.24,6.24,0,0,1,58.41,27.78Z" fill="#fdc305"/><path d="M56.46,21.67c.47.6.88,1.13,1,1.29a28,28,0,0,1,1.83,3,6.24,6.24,0,0,1-.86,1.78c-.44.43-1.35.72-1.5-.58S56.72,25,56.72,25s-1.93-3.43-2.65-3.47-5.83,3.47-7.18,5c-1.17,1.29-1.4,1.2-1.4,3.47,0,1.5.17,6.65.13,11.23,1.81.2,4.47.7,5.27,1.88,0,0-.29-7.18,7.81-3.42,0,0,.28-9.79,11.46-7.28A43.72,43.72,0,0,0,56.46,21.67Z" fill="#f06351"/><path d="M45.93,19.35a90.45,90.45,0,0,0-1.4-16.53s-.15-1.3-.87-.24a14.26,14.26,0,0,0-1.2,4,70.88,70.88,0,0,0-12.82.34c-.82-2.75-2.22-4-2.89-3.67S26,6.53,26,6.53l-.33,14.16A142.77,142.77,0,0,1,45.93,19.35Z" fill="#f06351"/><path d="M45.35,47.12c.13-1.07.2-2.49.24-4.06l-8.15,2.17A64,64,0,0,1,29.64,47l1.11,5c0,.11,0,.22.07.33a32.32,32.32,0,0,0,4.76,2.55,42.42,42.42,0,0,0,6.88-4.13v.06A15.22,15.22,0,0,0,45.35,47.12Z" fill="#e55645"/><path d="M32,16.22c-.05-.1,1,.68,1.41.92s.61.42.61.59-.26.34-.62.34-.92-.12-1-.26.6,0,.94,0h.29A8.08,8.08,0,0,1,32,16.22Z"/><path d="M39.5,16.33s-1,1.28-1.09,1.34-.17.34.19.29a8.09,8.09,0,0,0,1.22-.28c.11-.06.07-.2-.12-.18s-.68.05-1,.11l.85-1.27S39.58,16.22,39.5,16.33Z"/><path d="M36.36,22.44a2.3,2.3,0,0,0,1.09-1c.28-.66,0-.91-.44-1a2.45,2.45,0,0,0-1.75.34c-.39.37-.34.73,0,1A5.16,5.16,0,0,0,36.36,22.44Z"/><path d="M36,23.7a2.05,2.05,0,0,1-.46.6,1.73,1.73,0,0,1-1,.38A2.18,2.18,0,0,1,33,24.24a2,2,0,0,1-.53-.45,1,1,0,0,0-.36-.25s.75,4.11,2.57,4.77,2.16-.76,2.21-1.14a5.63,5.63,0,0,0-.82-3.24C36.07,23.63,36.05,23.83,36,23.7Z" fill="#f06351"/><path d="M34.3,24.84h0a3.5,3.5,0,0,1-2.35-1.43.15.15,0,0,1,0-.2.14.14,0,0,1,.2,0,3.22,3.22,0,0,0,2.11,1.31h0a2.11,2.11,0,0,0,1.64-1l.14-.19.1.22s.38.76,1,.8,1.06-.42,1.63-1.29a.14.14,0,1,1,.24.16q-1,1.47-1.89,1.41A1.55,1.55,0,0,1,36,23.9,2.26,2.26,0,0,1,34.3,24.84Z"/><circle cx="36.26" cy="34.55" r="3.75" fill="#fdc305"/><path d="M41.23,31.5,38.1,32.81l1.15-5.63-7.5,9.76,3.13-1.31-1.15,5.64Zm-7.39,3.83L38,29.92l-.81,4,2-.82L35,38.52l.81-4Z" fill="#111"/><circle cx="32.44" cy="32.74" r="1.12" fill="#111"/><circle cx="38.96" cy="37.13" r="0.79" fill="#111"/><circle cx="39.92" cy="35.4" r="0.35" fill="#111"/><path d="M45.88,21.16a57.46,57.46,0,0,0-5.09,5.21,31.88,31.88,0,0,1-5.31,4.9c-.22-.53-1.63-1.52-1.63-1.52s-3.14-2.15-5.2-3.84a31.9,31.9,0,0,1-3.14-3l-2-.11a22.63,22.63,0,0,0,12,8.84c.86-.14,3.28-1.87,5.09-3.28a57.66,57.66,0,0,0,6-5.91,6.38,6.38,0,0,0,1.14-2C46.6,20.83,45.88,21.16,45.88,21.16Z" fill="#f06351"/><polygon points="65.22 3.5 56.76 12.94 55.54 10.95 63.69 0 65.22 3.5" fill="#fdc305"/><polygon points="62.65 17.26 68.19 13.15 67.41 9.41 62.01 14.22 62.65 17.26" fill="#fdc305"/><polygon points="59.92 49.37 66.05 52.55 69.06 50.21 62.37 47.46 59.92 49.37" fill="#fdc305"/><polygon points="1.95 5.97 5.02 2.61 14.31 11.61 13.09 13.89 1.95 5.97" fill="#fdc305"/><polygon points="7.38 16.28 2.68 13.15 0.28 17.02 5.43 19.42 7.38 16.28" fill="#fdc305"/><polygon points="13.91 52.55 9.36 55.9 12.16 59.48 16.18 55.46 13.91 52.55" fill="#fdc305"/><path d="M25.93,28s-3.81-1.44-5.21-1.83a3.76,3.76,0,0,0-4,.63,5.07,5.07,0,0,0-1.73,3.85,7.14,7.14,0,0,1,.48,1.45c.05.48-1.2.43-2,.43s-.92-1.44-.29-3.13A22.81,22.81,0,0,1,15,25.66c-5.45,2.84-15,9.4-15,9.4a45.82,45.82,0,0,1,8.19.24c5.25.53,5,4.67,5,4.67a38.63,38.63,0,0,1,5.63-1.11c2.12-.14,2.27,2.12,2.27,2.12l.53,3.86a18.29,18.29,0,0,1,2.65-2.36,6.06,6.06,0,0,1,4.38-1.3h0Z" fill="#f06351"/><path d="M85.66,42a8.29,8.29,0,0,1-1.4-5.19v-7.5a8.42,8.42,0,0,1,1.38-5.24q1.39-1.79,4.75-1.78t4.55,1.57a6.72,6.72,0,0,1,1.33,4.49v1.76H92.13V28.2A10,10,0,0,0,92,26.7a1.68,1.68,0,0,0-.47-.95,1.56,1.56,0,0,0-1.15-.37,1.46,1.46,0,0,0-1.5.75,5.47,5.47,0,0,0-.34,2.2v9.52a4.78,4.78,0,0,0,.39,2.2,1.48,1.48,0,0,0,1.45.73,1.35,1.35,0,0,0,1.4-.74,5.84,5.84,0,0,0,.31-2.19v-2h4.14v1.73A7.25,7.25,0,0,1,95,42.19c-.88,1.1-2.4,1.64-4.56,1.64S86.59,43.23,85.66,42Z" fill="#111"/><path d="M101.91,22.58h4.74l4,21h-3.94L106,38.94h-3.32l-.8,4.61h-4Zm3.65,13.72-1.26-8.44-1.25,8.44Z" fill="#111"/><path d="M113.72,25.74h-3.24V22.58H121.2v3.16H118V43.55h-4.29Z" fill="#111"/><path d="M129.61,22.58h8.13v2.18h-5.2v6.93h4.22v2.07h-4.22v7.69h5.25v2.1h-8.18Z" fill="#444"/><path d="M140.15,22.58h2l6,13.93V22.58h2.44v21h-1.87l-6-14.32V43.55h-2.48Z" fill="#444"/><path d="M153.82,22.58h8.12v2.18h-5.2v6.93H161v2.07h-4.22v7.69H162v2.1h-8.18Z" fill="#444"/><path d="M164.35,22.58h4.22a7,7,0,0,1,4.67,1.31c1,.87,1.49,2.29,1.49,4.26q0,4-2.59,4.89l3,10.51H172.3l-2.75-9.84h-2.27v9.84h-2.93Zm4,9a3.87,3.87,0,0,0,2.7-.76,3.57,3.57,0,0,0,.82-2.71,5.85,5.85,0,0,0-.29-2,1.89,1.89,0,0,0-1-1.08,4.76,4.76,0,0,0-2.05-.35h-1.29v6.94Z" fill="#444"/><path d="M178.67,42a9.25,9.25,0,0,1-1.27-5.35v-7a13.5,13.5,0,0,1,.5-4,4.48,4.48,0,0,1,1.74-2.41A5.91,5.91,0,0,1,183,22.4a5.26,5.26,0,0,1,4.18,1.48,7,7,0,0,1,1.28,4.63v.78h-2.75v-.65a11.48,11.48,0,0,0-.18-2.32,2,2,0,0,0-.76-1.23,3,3,0,0,0-1.72-.41,2.52,2.52,0,0,0-1.81.56,2.56,2.56,0,0,0-.77,1.48,14.8,14.8,0,0,0-.17,2.49V37a7.51,7.51,0,0,0,.59,3.46,2.83,2.83,0,0,0,4.47-.09,8.11,8.11,0,0,0,.61-3.65V35.24h-2.66V33.17h5.3V43.55H186.8l-.29-2.41a3.69,3.69,0,0,1-3.73,2.67A4.66,4.66,0,0,1,178.67,42Z" fill="#444"/><path d="M194.69,36.15l-4.53-13.57h2.72l3.21,10.12,3.16-10.12H202l-4.5,13.57v7.4h-2.8Z" fill="#444"/></svg>